<svg width="20" height="20" viewBox="0 0 20 20" fill="none" xmlns="http://www.w3.org/2000/svg">
<g clip-path="url(#clip0_10056_1764)">
<path d="M4.99666 7.49595H3.74749C3.19532 7.49595 2.66576 7.2766 2.27532 6.88616C1.88488 6.49571 1.66553 5.96616 1.66553 5.41399C1.66553 4.86182 1.88488 4.33227 2.27532 3.94182C2.66576 3.55138 3.19532 3.33203 3.74749 3.33203H4.99666" stroke="#F5C842" stroke-width="1.66557" stroke-linecap="round" stroke-linejoin="round"/>
<path d="M14.9902 7.49595H16.2394C16.7916 7.49595 17.3211 7.2766 17.7116 6.88616C18.102 6.49571 18.3214 5.96616 18.3214 5.41399C18.3214 4.86182 18.102 4.33227 17.7116 3.94182C17.3211 3.55138 16.7916 3.33203 16.2394 3.33203H14.9902" stroke="#F5C842" stroke-width="1.66557" stroke-linecap="round" stroke-linejoin="round"/>
<path d="M3.33105 18.3203H16.6556" stroke="#F5C842" stroke-width="1.66557" stroke-linecap="round" stroke-linejoin="round"/>
<path d="M8.32794 12.209V14.1577C8.32794 14.6157 7.93653 14.9738 7.52014 15.1654C6.53746 15.6151 5.82959 16.8559 5.82959 18.3216" stroke="#F5C842" stroke-width="1.66557" stroke-linecap="round" stroke-linejoin="round"/>
<path d="M11.6592 12.209V14.1577C11.6592 14.6157 12.0506 14.9738 12.467 15.1654C13.4497 15.6151 14.1575 16.8559 14.1575 18.3216" stroke="#F5C842" stroke-width="1.66557" stroke-linecap="round" stroke-linejoin="round"/>
<path d="M14.99 1.66602H4.99658V7.4955C4.99658 8.82071 5.52302 10.0916 6.46008 11.0287C7.39714 11.9658 8.66808 12.4922 9.99328 12.4922C11.3185 12.4922 12.5894 11.9658 13.5265 11.0287C14.4635 10.0916 14.99 8.82071 14.99 7.4955V1.66602Z" stroke="#F5C842" stroke-width="1.66557" stroke-linecap="round" stroke-linejoin="round"/>
</g>
<defs>
<clipPath id="clip0_10056_1764">
<rect width="19.9868" height="19.9868" fill="white"/>
</clipPath>
</defs>
</svg>
