<svg width="20" height="20" viewBox="0 0 20 20" fill="none" xmlns="http://www.w3.org/2000/svg">
<path d="M1.6665 17.4994C1.66639 16.4213 1.92777 15.3591 2.42824 14.4042C2.9287 13.4492 3.65333 12.6298 4.53997 12.0164C5.4266 11.4029 6.4488 11.0136 7.51891 10.8819C8.58901 10.7503 9.67509 10.8801 10.684 11.2603" stroke="#FE9301" stroke-width="1.66667" stroke-linecap="round" stroke-linejoin="round"/>
<path d="M17.8148 13.8558C18.1468 13.5238 18.3333 13.0736 18.3333 12.6041C18.3333 12.1346 18.1468 11.6844 17.8148 11.3524C17.4829 11.0205 17.0326 10.834 16.5632 10.834C16.0937 10.834 15.6434 11.0205 15.3115 11.3524L11.9698 14.6958C11.7717 14.8938 11.6267 15.1386 11.5482 15.4074L10.8507 17.7991C10.8297 17.8708 10.8285 17.9468 10.847 18.0192C10.8656 18.0915 10.9032 18.1576 10.956 18.2104C11.0088 18.2632 11.0749 18.3009 11.1472 18.3194C11.2196 18.3379 11.2956 18.3367 11.3673 18.3158L13.759 17.6183C14.0279 17.5398 14.2726 17.3947 14.4707 17.1966L17.8148 13.8558Z" stroke="#FE9301" stroke-width="1.66667" stroke-linecap="round" stroke-linejoin="round"/>
<path d="M8.33335 10.8333C10.6345 10.8333 12.5 8.96785 12.5 6.66667C12.5 4.36548 10.6345 2.5 8.33335 2.5C6.03217 2.5 4.16669 4.36548 4.16669 6.66667C4.16669 8.96785 6.03217 10.8333 8.33335 10.8333Z" stroke="#FE9301" stroke-width="1.66667" stroke-linecap="round" stroke-linejoin="round"/>
</svg>
