<svg width="24" height="24" viewBox="0 0 24 24" fill="none" xmlns="http://www.w3.org/2000/svg">
<path d="M15.374 21V13C15.374 12.7348 15.2687 12.4804 15.0811 12.2929C14.8936 12.1054 14.6392 12 14.374 12H10.374C10.1088 12 9.85445 12.1054 9.66692 12.2929C9.47938 12.4804 9.37402 12.7348 9.37402 13V21" stroke="#FE9301" stroke-width="2" stroke-linecap="round" stroke-linejoin="round"/>
<path d="M3.37402 10.0005C3.37395 9.70955 3.43736 9.4221 3.55981 9.1582C3.68227 8.89429 3.86082 8.66028 4.08302 8.47248L11.083 2.47248C11.444 2.16739 11.9014 2 12.374 2C12.8467 2 13.304 2.16739 13.665 2.47248L20.665 8.47248C20.8872 8.66028 21.0658 8.89429 21.1882 9.1582C21.3107 9.4221 21.3741 9.70955 21.374 10.0005V19.0005C21.374 19.5309 21.1633 20.0396 20.7882 20.4147C20.4132 20.7898 19.9045 21.0005 19.374 21.0005H5.37402C4.84359 21.0005 4.33488 20.7898 3.95981 20.4147C3.58474 20.0396 3.37402 19.5309 3.37402 19.0005V10.0005Z" stroke="#FE9301" stroke-width="2" stroke-linecap="round" stroke-linejoin="round"/>
</svg>
