<svg width="20" height="20" viewBox="0 0 20 20" fill="none" xmlns="http://www.w3.org/2000/svg">
<path d="M16.464 6.65625H3.13942C2.67949 6.65625 2.30664 7.0291 2.30664 7.48903V9.1546C2.30664 9.61453 2.67949 9.98738 3.13942 9.98738H16.464C16.9239 9.98738 17.2967 9.61453 17.2967 9.1546V7.48903C17.2967 7.0291 16.9239 6.65625 16.464 6.65625Z" stroke="#8F8B9A" stroke-width="1.66557" stroke-linecap="round" stroke-linejoin="round"/>
<path d="M9.80176 6.65625V17.4824" stroke="#8F8B9A" stroke-width="1.66557" stroke-linecap="round" stroke-linejoin="round"/>
<path d="M15.6316 9.98828V15.8178C15.6316 16.2595 15.4561 16.6831 15.1438 16.9955C14.8314 17.3079 14.4078 17.4833 13.9661 17.4833H5.63822C5.19649 17.4833 4.77284 17.3079 4.46049 16.9955C4.14814 16.6831 3.97266 16.2595 3.97266 15.8178V9.98828" stroke="#8F8B9A" stroke-width="1.66557" stroke-linecap="round" stroke-linejoin="round"/>
<path d="M6.05461 6.65647C5.50244 6.65647 4.97289 6.43712 4.58245 6.04668C4.192 5.65623 3.97266 5.12668 3.97266 4.57451C3.97266 4.02234 4.192 3.49279 4.58245 3.10234C4.97289 2.7119 5.50244 2.49255 6.05461 2.49255C6.85799 2.47855 7.64525 2.86835 8.31374 3.61111C8.98222 4.35387 9.5009 5.41512 9.80214 6.65647C10.1034 5.41512 10.6221 4.35387 11.2905 3.61111C11.959 2.86835 12.7463 2.47855 13.5497 2.49255C14.1018 2.49255 14.6314 2.7119 15.0218 3.10234C15.4123 3.49279 15.6316 4.02234 15.6316 4.57451C15.6316 5.12668 15.4123 5.65623 15.0218 6.04668C14.6314 6.43712 14.1018 6.65647 13.5497 6.65647" stroke="#8F8B9A" stroke-width="1.66557" stroke-linecap="round" stroke-linejoin="round"/>
</svg>
