<svg width="20" height="20" viewBox="0 0 20 20" fill="none" xmlns="http://www.w3.org/2000/svg">
<g clip-path="url(#clip0_10056_1741)">
<path d="M8.55078 17.4883C8.69697 17.7415 8.90723 17.9517 9.16042 18.0979C9.4136 18.244 9.70081 18.321 9.99316 18.321C10.2855 18.321 10.5727 18.244 10.8259 18.0979C11.0791 17.9517 11.2894 17.7415 11.4355 17.4883" stroke="#8B5FD9" stroke-width="1.66557" stroke-linecap="round" stroke-linejoin="round"/>
<path d="M2.7166 12.7637C2.60781 12.8829 2.53602 13.0312 2.50995 13.1905C2.48389 13.3498 2.50468 13.5132 2.56979 13.6609C2.6349 13.8086 2.74153 13.9342 2.87671 14.0224C3.01189 14.1106 3.16979 14.1576 3.3312 14.1578H16.6557C16.8171 14.1578 16.9751 14.111 17.1103 14.0229C17.2456 13.9349 17.3524 13.8095 17.4176 13.6619C17.4829 13.5143 17.5039 13.3509 17.4781 13.1916C17.4522 13.0323 17.3806 12.8839 17.272 12.7645C16.1644 11.6228 14.9902 10.4094 14.9902 6.66272C14.9902 5.33751 14.4637 4.06658 13.5267 3.12952C12.5896 2.19245 11.3187 1.66602 9.99347 1.66602C8.66826 1.66602 7.39733 2.19245 6.46026 3.12952C5.5232 4.06658 4.99677 5.33751 4.99677 6.66272C4.99677 10.4094 3.82171 11.6228 2.7166 12.7637Z" stroke="#8B5FD9" stroke-width="1.66557" stroke-linecap="round" stroke-linejoin="round"/>
</g>
<defs>
<clipPath id="clip0_10056_1741">
<rect width="19.9868" height="19.9868" fill="white"/>
</clipPath>
</defs>
</svg>
